<svg width="18" height="18" viewBox="0 0 18 18" fill="none" xmlns="http://www.w3.org/2000/svg">
<path d="M9.97426 2.36096L16.4498 13.5765C16.5485 13.7475 16.6005 13.9415 16.6005 14.139C16.6005 14.3364 16.5485 14.5304 16.4498 14.7014C16.351 14.8725 16.209 15.0145 16.038 15.1132C15.867 15.212 15.673 15.264 15.4755 15.264H2.52451C2.32703 15.264 2.13304 15.212 1.96202 15.1132C1.791 15.0145 1.64899 14.8725 1.55025 14.7014C1.45151 14.5304 1.39953 14.3364 1.39954 14.139C1.39954 13.9415 1.45152 13.7475 1.55026 13.5765L8.02576 2.36096C8.45851 1.61096 9.54076 1.61096 9.97426 2.36096ZM9.00001 11.25C8.80109 11.25 8.61033 11.329 8.46968 11.4696C8.32902 11.6103 8.25001 11.8011 8.25001 12C8.25001 12.1989 8.32902 12.3896 8.46968 12.5303C8.61033 12.6709 8.80109 12.75 9.00001 12.75C9.19892 12.75 9.38968 12.6709 9.53034 12.5303C9.67099 12.3896 9.75001 12.1989 9.75001 12C9.75001 11.8011 9.67099 11.6103 9.53034 11.4696C9.38968 11.329 9.19892 11.25 9.00001 11.25ZM9.00001 5.99996C8.81631 5.99999 8.639 6.06743 8.50173 6.1895C8.36445 6.31157 8.27675 6.47977 8.25526 6.66221L8.25001 6.74996V9.74996C8.25022 9.94112 8.32342 10.125 8.45464 10.264C8.58587 10.403 8.76522 10.4866 8.95605 10.4978C9.14688 10.509 9.33479 10.447 9.48138 10.3243C9.62797 10.2016 9.72218 10.0275 9.74476 9.83771L9.75001 9.74996V6.74996C9.75001 6.55105 9.67099 6.36028 9.53034 6.21963C9.38968 6.07898 9.19892 5.99996 9.00001 5.99996Z" fill="#F59E0B"/>
</svg>
