<svg width="18" height="18" viewBox="0 0 18 18" fill="none" xmlns="http://www.w3.org/2000/svg">
<g clip-path="url(#clip0_1_395)">
<path d="M1.87526 16.1233L2.92526 15.0733M2.92526 15.0733L4.00751 16.1121C4.59282 16.6976 5.54337 16.6977 6.12889 16.1124C6.7144 15.5271 6.71457 14.5766 6.12926 13.9911L7.45451 15.3171C7.83352 15.6961 8.38595 15.8441 8.90369 15.7054C9.42144 15.5666 9.82584 15.1622 9.96457 14.6445C10.1033 14.1267 9.95527 13.5743 9.57626 13.1953L4.80326 8.42231C4.42425 8.04329 3.87182 7.89527 3.35408 8.034C2.83634 8.17273 2.43193 8.57713 2.2932 9.09487C2.15447 9.61262 2.3025 10.165 2.68151 10.5441L4.00751 11.8693C3.422 11.284 2.47144 11.2842 1.88614 11.8697C1.30083 12.4552 1.301 13.4058 1.88651 13.9911L2.92526 15.0733ZM15.0753 2.92331L16.1253 1.87331M7.20026 10.7983L10.8003 7.19831M13.1973 9.57431C13.5763 9.95332 14.1287 10.1013 14.6464 9.96262C15.1642 9.82389 15.5686 9.41948 15.7073 8.90174C15.846 8.384 15.698 7.83157 15.319 7.45256L13.993 6.12731C14.5789 6.713 15.5287 6.71284 16.1144 6.12693C16.7001 5.54103 16.6999 4.59126 16.114 4.00556L13.993 1.88456C13.4077 1.29904 12.4571 1.29888 11.8716 1.88418C11.2861 2.46949 11.286 3.42004 11.8713 4.00556L10.546 2.67956C10.167 2.30054 9.61457 2.15252 9.09683 2.29125C8.57909 2.42998 8.17468 2.83438 8.03595 3.35212C7.89722 3.86987 8.04525 4.42229 8.42426 4.80131L13.1973 9.57431Z" stroke="#8B5CF6" stroke-width="1.5" stroke-linecap="round" stroke-linejoin="round"/>
</g>
<defs>
<clipPath id="clip0_1_395">
<rect width="18" height="18" fill="white"/>
</clipPath>
</defs>
</svg>
