<svg width="18" height="18" viewBox="0 0 18 18" fill="none" xmlns="http://www.w3.org/2000/svg">
<path d="M8.99965 3.74882C9.00205 2.93221 8.56182 2.17841 7.84941 1.77927C7.13699 1.38013 6.26424 1.39832 5.56907 1.8268C4.87391 2.25528 4.46547 3.02677 4.5019 3.84257C3.60863 4.07225 2.87066 4.70005 2.50078 5.54495C2.1309 6.38986 2.17022 7.35794 2.6074 8.17007C1.83717 8.79581 1.42622 9.76195 1.50967 10.7508C1.59313 11.7397 2.16019 12.6233 3.0244 13.1111C2.88116 14.2193 3.36576 15.3153 4.28192 15.9552C5.19808 16.595 6.39393 16.6726 7.3851 16.1565C8.37627 15.6405 8.99846 14.6163 8.99965 13.4988V3.74882" stroke="#EC4899" stroke-width="1.5" stroke-linecap="round" stroke-linejoin="round"/>
<path d="M6.74967 9.75C8.03734 9.29702 8.92536 8.11299 8.99967 6.75M4.50192 3.84375C4.51675 4.20655 4.61917 4.56037 4.80042 4.875M2.60742 8.172C2.74463 8.06025 2.89145 7.96087 3.04617 7.875M4.49967 13.5C3.98279 13.5002 3.47462 13.3669 3.02442 13.113M8.99967 9.75H11.9997M8.99967 13.5H13.4997C14.3275 13.5 14.9997 14.1721 14.9997 15V15.75M8.99967 6H14.9997M11.9997 6V3.75C11.9997 2.92213 12.6718 2.25 13.4997 2.25" stroke="#EC4899" stroke-width="1.5" stroke-linecap="round" stroke-linejoin="round"/>
<path d="M11.625 9.75C11.625 9.95697 11.793 10.125 12 10.125C12.207 10.125 12.375 9.95697 12.375 9.75C12.375 9.54303 12.207 9.375 12 9.375C11.793 9.375 11.625 9.54303 11.625 9.75V9.75" stroke="#EC4899" stroke-width="1.5" stroke-linecap="round" stroke-linejoin="round"/>
<path d="M13.125 2.25C13.125 2.45697 13.293 2.625 13.5 2.625C13.707 2.625 13.875 2.45697 13.875 2.25C13.875 2.04303 13.707 1.875 13.5 1.875C13.293 1.875 13.125 2.04303 13.125 2.25V2.25" stroke="#EC4899" stroke-width="1.5" stroke-linecap="round" stroke-linejoin="round"/>
<path d="M14.625 15.75C14.625 15.957 14.793 16.125 15 16.125C15.207 16.125 15.375 15.957 15.375 15.75C15.375 15.543 15.207 15.375 15 15.375C14.793 15.375 14.625 15.543 14.625 15.75V15.75" stroke="#EC4899" stroke-width="1.5" stroke-linecap="round" stroke-linejoin="round"/>
<path d="M14.625 6C14.625 6.20697 14.793 6.375 15 6.375C15.207 6.375 15.375 6.20697 15.375 6C15.375 5.79303 15.207 5.625 15 5.625C14.793 5.625 14.625 5.79303 14.625 6V6" stroke="#EC4899" stroke-width="1.5" stroke-linecap="round" stroke-linejoin="round"/>
</svg>
