<svg width="18" height="18" viewBox="0 0 18 18" fill="none" xmlns="http://www.w3.org/2000/svg">
<path d="M9.6 14.7C10.1221 15.0916 10.8375 15.1006 11.3694 14.7224C11.9012 14.3441 12.1274 13.6654 11.9289 13.0437C11.7304 12.422 11.1526 12 10.5 12H1.5M13.125 6C13.654 5.29461 14.6031 5.05314 15.4049 5.41991C16.2068 5.78668 16.6447 6.66258 16.457 7.52411C16.2693 8.38564 15.5067 9 14.625 9H1.5M7.35 3.3C7.87211 2.90842 8.5875 2.89937 9.11935 3.27761C9.6512 3.65586 9.87744 4.33459 9.67891 4.9563C9.48038 5.57801 8.90264 6 8.25 6H1.5" stroke="#0EA5E9" stroke-width="1.5" stroke-linecap="round" stroke-linejoin="round"/>
</svg>
