<svg width="16" height="16" viewBox="0 0 16 16" fill="none" xmlns="http://www.w3.org/2000/svg">
<path d="M3.99935 1.33203H11.9993C12.7352 1.33203 13.3327 1.92948 13.3327 2.66536V13.332C13.3327 14.0679 12.7352 14.6654 11.9993 14.6654H3.99935C3.26346 14.6654 2.66602 14.0679 2.66602 13.332V2.66536C2.66602 1.92948 3.26346 1.33203 3.99935 1.33203V1.33203" stroke="#8B5CF6" stroke-width="1.33333" stroke-linecap="round" stroke-linejoin="round"/>
<path d="M5.33301 4H10.6663M10.6663 9.33333V12M10.6663 6.66667H10.673M7.99967 6.66667H8.00634M5.33301 6.66667H5.33967M7.99967 9.33333H8.00634M5.33301 9.33333H5.33967M7.99967 12H8.00634M5.33301 12H5.33967" stroke="#8B5CF6" stroke-width="1.33333" stroke-linecap="round" stroke-linejoin="round"/>
</svg>
