<svg width="18" height="18" viewBox="0 0 18 18" fill="none" xmlns="http://www.w3.org/2000/svg">
<path d="M1.5 7.12557C1.50003 5.41703 2.55333 3.88534 4.14871 3.27387C5.74408 2.6624 7.55129 3.09773 8.69325 4.36857C8.77267 4.45349 8.88373 4.50169 9 4.50169C9.11627 4.50169 9.22733 4.45349 9.30675 4.36857C10.4453 3.08923 12.257 2.64825 13.8562 3.26119C15.4554 3.87412 16.5082 5.41296 16.5 7.12557C16.5 8.84307 15.375 10.1256 14.25 11.2506L10.131 15.2353C9.8483 15.56 9.43972 15.7476 9.00922 15.7503C8.57871 15.753 8.16779 15.5707 7.881 15.2496L3.75 11.2506C2.625 10.1256 1.5 8.85057 1.5 7.12557" stroke="#F59E0B" stroke-width="1.5" stroke-linecap="round" stroke-linejoin="round"/>
<path d="M2.41504 9.75H7.12504L7.50004 9L9.00004 12.375L10.5 7.125L11.625 9.75H15.5775" stroke="#F59E0B" stroke-width="1.5" stroke-linecap="round" stroke-linejoin="round"/>
</svg>
