<svg width="18" height="18" viewBox="0 0 18 18" fill="none" xmlns="http://www.w3.org/2000/svg">
<path d="M2.99964 10.4981C2.70995 10.4991 2.44559 10.3331 2.32055 10.0718C2.1955 9.8105 2.23213 9.50053 2.41464 9.27556L9.83964 1.62556C9.95435 1.49315 10.1455 1.45781 10.2999 1.54044C10.4544 1.62307 10.5311 1.80165 10.4846 1.97056L9.04464 6.48556C8.95844 6.71625 8.99099 6.97454 9.1317 7.17663C9.27242 7.37873 9.50338 7.49887 9.74964 7.49806H14.9996C15.2893 7.49708 15.5537 7.66301 15.6787 7.92432C15.8038 8.18563 15.7671 8.49559 15.5846 8.72056L8.15964 16.3706C8.04492 16.503 7.85382 16.5383 7.69934 16.4557C7.54486 16.3731 7.46817 16.1945 7.51464 16.0256L8.95464 11.5106C9.04083 11.2799 9.00828 11.0216 8.86757 10.8195C8.72685 10.6174 8.49589 10.4973 8.24964 10.4981H2.99964" stroke="#EAD308" stroke-width="1.5" stroke-linecap="round" stroke-linejoin="round"/>
</svg>
